<svg xmlns="http://www.w3.org/2000/svg" width="358" height="74" viewBox="0 0 358 74" fill="none"><g clip-path="url(#clip0_1_3)"><mask id="mask0_1_3" style="mask-type:luminance" maskUnits="userSpaceOnUse" x="265" y="6" width="93" height="61"><path d="M358 6H265V67H358V6Z" fill="white"></path></mask><g mask="url(#mask0_1_3)"><path d="M288.027 36.798C287.759 38.4753 287.495 40.1275 287.23 41.779C287.018 40.6678 286.84 39.5643 286.788 38.4395C286.767 37.9808 286.774 37.5193 286.731 37.0613C286.709 36.8273 286.8 36.7822 287.013 36.793C287.347 36.8101 287.683 36.7972 288.026 36.7972L288.027 36.798Z" fill="black"></path><path d="M345.529 45.0979C345.458 45.0908 345.385 45.0965 345.313 45.0965C341.403 45.0965 337.493 45.0936 333.583 45.1022C333.281 45.1022 333.182 45.0185 333.151 44.7151C333.097 44.1927 333.517 43.8242 333.972 43.6696C334.745 43.407 335.551 43.3627 336.36 43.2925C337.287 43.2124 338.22 43.1831 339.142 43.0285C339.796 42.919 340.43 42.7816 341.09 42.3773H332.872C331.235 42.3773 329.6 42.3823 327.963 42.3716C327.728 42.3702 327.657 42.4289 327.668 42.6643C327.688 43.0836 327.674 43.5043 327.674 43.968C326.96 43.2625 326.349 43.3476 325.799 43.7061C325.326 44.0138 325.146 44.7752 325.404 45.3097C325.524 45.5573 325.674 45.7884 325.942 45.9287C326.428 46.1834 326.898 46.1348 327.372 45.8908C326.727 46.4389 326.041 46.5784 325.263 46.192C324.767 45.9452 324.25 45.7419 323.737 45.5294C323.654 45.4951 323.577 45.4614 323.513 45.4006C323.605 45.3841 323.668 45.2976 323.775 45.3083C324.225 45.3548 324.66 45.1867 325.111 45.2181C324.645 44.9834 324.133 45.0865 323.651 45.0457C322.552 44.9519 321.449 44.9033 320.348 44.816C319.375 44.7387 318.395 44.7466 317.425 44.6514C317.022 44.6121 316.576 44.685 316.224 44.275C315.979 43.9888 315.675 43.7233 315.379 43.4671C315.338 43.4314 315.307 43.3634 315.233 43.3899C315.154 43.4171 315.183 43.4879 315.182 43.5408C315.181 44.811 315.181 46.0811 315.181 47.4486C315.493 47.0579 315.829 46.8224 316.076 46.4847C316.229 46.275 316.399 45.991 316.679 45.9666C317.479 45.8958 318.279 45.8249 319.079 45.7448C319.751 45.6775 320.438 45.704 321.097 45.5795C321.663 45.4729 322.045 45.5537 322.396 46.0367C322.751 46.5226 323.285 46.8611 323.638 47.362C323.735 47.5001 323.87 47.533 324.04 47.533C330.429 47.5287 336.817 47.5287 343.206 47.5344C343.395 47.5344 343.516 47.4715 343.637 47.3448C344.197 46.7602 344.762 46.1799 345.325 45.5988C345.417 45.5044 345.513 45.4149 345.604 45.3197C345.65 45.2711 345.736 45.2353 345.71 45.1523C345.682 45.0593 345.591 45.1051 345.526 45.0986L345.529 45.0979Z" fill="black"></path><path d="M337.031 36.5833C336.648 36.5833 336.634 36.5683 336.627 36.1847C336.616 35.6309 336.837 35.3504 337.375 35.15C338.166 34.8559 339.001 34.8001 339.823 34.7393C340.896 34.6599 341.971 34.6134 343.033 34.4337C343.519 34.3515 343.991 34.2091 344.391 33.8656H343.187C339.312 33.8656 335.438 33.8677 331.563 33.8599C331.299 33.8599 331.182 33.8992 331.204 34.1983C331.234 34.6212 331.212 35.0484 331.212 35.5393C331.132 35.4649 331.093 35.4277 331.054 35.3897C330.38 34.7422 329.657 34.7543 329.026 35.4241C328.782 35.6831 328.732 36.0008 328.761 36.3336C328.779 36.5382 328.707 36.6005 328.504 36.5876C328.196 36.569 327.885 36.5332 327.583 36.5289C327.021 36.5203 326.464 36.4517 325.904 36.4259C325.453 36.4059 324.998 36.4073 324.55 36.3608C323.559 36.2592 322.564 36.2112 321.57 36.1561C321.106 36.1304 320.646 36.0388 320.18 36.0838C320.068 36.0946 320.008 36.0309 319.938 35.9643C319.583 35.6316 319.225 35.3024 318.866 34.974C318.81 34.9232 318.766 34.8259 318.654 34.8989V38.8245C319.095 38.3894 319.491 37.9958 319.891 37.6073C319.964 37.5372 320.019 37.4499 320.149 37.4377C320.829 37.3754 321.507 37.2896 322.187 37.2302C322.86 37.1708 323.538 37.1565 324.207 37.0728C324.492 37.037 324.792 37.0778 325.052 36.9948C325.292 36.9182 325.397 37.0019 325.532 37.1422C326.076 37.7089 326.624 38.2721 327.168 38.8388C327.278 38.954 327.39 39.0198 327.566 39.0198C333.944 39.0141 340.321 39.0148 346.699 39.0184C346.856 39.0184 346.976 38.9848 347.071 38.8624C347.324 38.5325 347.622 38.2427 347.917 37.9508C348.352 37.5221 348.798 37.1035 349.175 36.5826H348.8C344.877 36.5826 340.954 36.5833 337.031 36.5833ZM329.026 37.7833C328.309 37.5064 327.618 37.1636 326.872 36.8302C327.467 36.7686 328.017 36.7085 328.569 36.6592C328.671 36.6499 328.771 36.6212 328.856 36.7765C329.24 37.4785 330.093 37.8699 330.904 37.2331C330.916 37.2245 330.948 37.2416 330.971 37.2466C330.436 37.8284 329.685 38.0381 329.027 37.7833H329.026Z" fill="black"></path><path d="M352.614 28.2142C348.715 28.2142 344.817 28.2142 340.918 28.2142C340.833 28.2142 340.749 28.2092 340.665 28.2156C340.568 28.2228 340.479 28.1798 340.465 28.099C340.413 27.8099 340.33 27.5294 340.527 27.2374C340.841 26.773 341.347 26.685 341.817 26.5805C342.983 26.3215 344.185 26.3394 345.371 26.2228C345.933 26.1677 346.498 26.1219 347.043 25.988C347.459 25.8857 347.901 25.802 348.287 25.4249C343.887 25.4249 339.568 25.427 335.249 25.4185C335 25.4185 334.953 25.4965 334.961 25.7176C334.977 26.1598 334.966 26.6027 334.966 27.0972C334.365 26.4746 333.758 26.3952 333.221 26.6814C332.937 26.8331 332.74 27.0678 332.602 27.3333C332.466 27.5974 332.476 27.9058 332.547 28.2006C332.124 28.2442 331.723 28.1591 331.322 28.1526C330.736 28.1433 330.156 28.0718 329.571 28.0517C329.194 28.0389 328.809 28.0424 328.434 27.9931C327.527 27.875 326.615 27.8521 325.705 27.7963C325.159 27.7627 324.615 27.6625 324.063 27.7104C323.929 27.7219 323.825 27.6331 323.721 27.5544C323.35 27.2725 323.032 26.9362 322.7 26.6135C322.639 26.5548 322.596 26.4589 322.5 26.4589V30.4675C322.757 30.1405 323.038 29.9258 323.256 29.6396C323.492 29.3297 323.767 28.9956 324.219 29.0085C324.592 29.0192 324.952 28.9283 325.32 28.9297C325.689 28.9312 326.053 28.8682 326.421 28.8439C327.289 28.7866 328.153 28.6664 329.018 28.5712C329.108 28.5612 329.177 28.5877 329.24 28.6557C329.794 29.2553 330.355 29.85 330.905 30.4539C331.036 30.597 331.173 30.65 331.37 30.65C337.711 30.645 344.052 30.645 350.393 30.65C350.586 30.65 350.727 30.602 350.861 30.4618C351.512 29.782 352.173 29.1115 352.826 28.4339C352.884 28.3738 352.994 28.3387 352.976 28.2142H352.613H352.614ZM332.995 29.4485C332.219 29.1802 331.485 28.8196 330.652 28.4525C331.266 28.3909 331.794 28.338 332.321 28.2865C332.485 28.2707 332.597 28.3 332.685 28.4811C332.995 29.1215 333.923 29.4085 334.578 28.9369C334.591 28.9269 334.622 28.9412 334.645 28.9448C334.306 29.4235 333.459 29.6088 332.995 29.4485Z" fill="black"></path><path d="M357.999 36.2887C358.011 35.6948 357.97 34.8869 357.868 34.0754C357.765 33.2683 357.615 32.4747 357.433 31.6847C357.215 30.743 356.909 29.8307 356.562 28.9276C355.985 27.4292 355.241 26.0181 354.379 24.6643C353.47 23.2346 352.418 21.9093 351.269 20.6657C350.284 19.5995 349.224 18.5991 348.104 17.6725C347.332 17.0335 346.524 16.4374 345.711 15.8471C344.045 14.6377 342.285 13.5837 340.465 12.6306C338.446 11.5737 336.357 10.6663 334.212 9.87779C332.385 9.20587 330.535 8.61481 328.655 8.12393C327.092 7.71534 325.51 7.38046 323.916 7.09352C322.602 6.85738 321.283 6.66918 319.964 6.47598C319.043 6.34074 318.113 6.2563 317.184 6.18904C316.451 6.13537 315.713 6.05022 314.983 6.05666C313.586 6.06882 312.192 5.94646 310.794 6.0309C309.683 6.09816 308.569 6.01015 307.454 6.0953C306.91 6.1368 306.361 6.18045 305.813 6.19977C305.522 6.20979 305.221 6.22625 304.928 6.25988C304.181 6.34432 303.436 6.44736 302.689 6.53967C302.083 6.61552 301.473 6.67062 300.869 6.76507C300.247 6.86239 299.634 7.01123 299.012 7.10854C297.986 7.26811 296.977 7.50354 295.966 7.7318C295.017 7.94647 294.078 8.20837 293.139 8.46383C291.73 8.84594 290.345 9.29961 288.978 9.80194C287.579 10.3157 286.204 10.8882 284.847 11.5093C283.242 12.2442 281.68 13.0563 280.169 13.958C278.761 14.798 277.406 15.7204 276.11 16.7308C275.077 17.5365 274.076 18.3737 273.13 19.2768C272.51 19.8693 271.892 20.466 271.337 21.1215C270.837 21.7126 270.311 22.285 269.853 22.9061C269.27 23.6961 268.718 24.5076 268.208 25.3498C267.449 26.6063 266.823 27.9201 266.304 29.2876C265.912 30.3223 265.603 31.3813 265.388 32.4647C265.189 33.46 265.026 34.4647 265.013 35.4801C264.999 36.6493 264.97 37.8186 265.138 38.9871C265.25 39.7685 265.378 40.5456 265.558 41.312C265.781 42.2615 266.089 43.1868 266.443 44.0998C267.024 45.5968 267.766 47.0093 268.627 48.3625C269.537 49.7922 270.588 51.1174 271.737 52.3611C272.722 53.4272 273.782 54.4276 274.902 55.3543C275.674 55.9926 276.482 56.5893 277.295 57.1797C278.961 58.389 280.721 59.443 282.541 60.3954C284.56 61.4523 286.648 62.3597 288.793 63.1482C290.62 63.8202 292.47 64.4112 294.35 64.9021C295.914 65.3107 297.495 65.6456 299.089 65.9325C300.403 66.1686 301.722 66.3568 303.041 66.55C303.962 66.6853 304.892 66.769 305.821 66.8377C306.554 66.8921 307.29 66.9515 308.023 66.9751C309.394 67.0187 310.767 66.998 312.138 66.9844C313.276 66.9729 314.413 67.0187 315.552 66.9314C316.095 66.8899 316.644 66.8463 317.192 66.827C317.483 66.817 317.784 66.8005 318.077 66.7669C318.825 66.6824 319.569 66.5794 320.316 66.4871C320.923 66.4112 321.532 66.3561 322.136 66.2617C322.758 66.1644 323.372 66.0148 323.993 65.9182C325.019 65.7586 326.029 65.5232 327.039 65.2949C327.989 65.0803 328.927 64.8184 329.866 64.5629C331.275 64.1801 332.661 63.7278 334.028 63.2255C335.427 62.7117 336.802 62.1393 338.159 61.5182C339.764 60.7833 341.326 59.9718 342.837 59.0695C344.245 58.2294 345.599 57.3071 346.896 56.2967C347.929 55.4909 348.933 54.6566 349.874 53.7493C350.448 53.1954 351.017 52.6373 351.548 52.0383C352.14 51.3707 352.708 50.6866 353.25 49.9804C354.119 48.849 354.869 47.6412 355.538 46.3868C355.943 45.6276 356.275 44.8304 356.593 44.029C357.283 42.2901 357.688 40.4848 357.928 38.6386C358.02 37.9316 357.999 37.2204 358 36.2901L357.999 36.2887ZM306.712 7.69316C306.97 7.53359 307.251 7.43484 307.578 7.46203C307.911 7.48994 308.249 7.49638 308.588 7.40837C307.619 8.53395 306.728 9.69961 305.912 10.9146C305.244 11.9079 304.623 12.934 304.053 13.9909C303.56 14.9047 303.05 15.8134 302.676 16.7766C302.461 17.3311 302.17 17.4678 301.619 17.4249C300.949 17.3726 300.273 17.4199 299.6 17.4084C299.384 17.4048 299.287 17.4335 299.293 17.6889C299.311 18.5583 299.31 19.4285 299.294 20.2979C299.289 20.577 299.395 20.6449 299.653 20.6364C300.131 20.6206 300.611 20.6321 301.118 20.6321C300.772 21.6145 300.487 22.5813 300.213 23.5509C300.168 23.7083 300.106 23.7863 299.908 23.7856C296.71 23.7763 293.512 23.7791 290.273 23.7791C290.564 23.2825 290.832 22.8024 291.121 22.3351C291.736 21.3419 292.393 20.3737 293.111 19.4521C293.586 18.8431 294.077 18.2442 294.59 17.6632C295.311 16.8474 296.027 16.0252 296.813 15.2725C297.879 14.2521 298.973 13.2617 300.12 12.3279C301.568 11.1501 303.07 10.0467 304.628 9.01911C305.316 8.56615 306.011 8.12608 306.712 7.69316ZM309.991 23.5795C309.994 23.8178 309.858 23.7798 309.717 23.7798C308.31 23.7798 306.903 23.7798 305.496 23.7798C304.088 23.7798 302.753 23.7713 301.383 23.7863C301.083 23.7899 300.991 23.7519 301.099 23.4335C301.398 22.5541 301.615 21.6489 301.957 20.7816C302.011 20.6449 302.059 20.6313 302.173 20.6313C304.71 20.6328 307.248 20.6335 309.785 20.6292C309.94 20.6292 309.99 20.6686 309.988 20.8281C309.981 21.7455 309.977 22.6621 309.991 23.5795ZM298.436 35.8279C298.441 36.0025 298.36 36.0161 298.22 36.0139C297.811 36.0075 297.401 35.9903 296.994 36.0196C296.74 36.0375 296.66 35.9101 296.631 35.7169C296.481 34.6937 296.367 33.6647 296.186 32.6479C296.012 31.6783 295.901 30.7001 295.703 29.7341C295.56 29.0407 295.501 28.3309 295.399 27.6296C295.332 27.1702 295.252 26.7137 295.184 26.2543C295.154 26.0468 294.997 26.1455 294.904 26.1448C293.617 26.1376 292.33 26.1398 291.043 26.1398H290.285C289.705 26.1398 289.703 26.1398 289.625 26.68C289.45 27.8729 289.246 29.0614 289.056 30.2514C288.838 31.6139 288.626 32.977 288.409 34.3402C288.329 34.844 288.21 35.3448 288.185 35.8565C288.178 35.986 288.133 36.0153 288.014 36.0139C287.665 36.0082 287.316 36.0003 286.968 36.0168C286.771 36.0261 286.709 35.9574 286.736 35.7763C286.835 35.1059 286.851 34.4275 286.942 33.7549C287.054 32.9155 287.196 32.084 287.384 31.259C287.769 29.5759 288.3 27.9409 289.006 26.363C289.241 25.8385 289.482 25.3176 289.722 24.7959C289.781 24.6679 289.838 24.562 290.027 24.562C293.322 24.5684 296.616 24.567 299.944 24.567C299.665 25.709 299.4 26.8181 299.224 27.9473C299.094 28.7824 298.888 29.6096 298.81 30.4482C298.732 31.2754 298.61 32.0983 298.566 32.9312C298.516 33.8965 298.41 34.859 298.436 35.8279ZM291.646 36.927C291.635 36.8046 291.712 36.7974 291.804 36.7982C292.177 36.7996 292.549 36.8017 292.921 36.7967C293.039 36.7953 293.09 36.8225 293.093 36.9534C293.113 37.6905 293.199 38.4211 293.305 39.1502C293.322 39.2669 293.335 39.3814 293.138 39.3778C292.551 39.3663 291.964 39.3735 291.376 39.3735C291.444 38.7853 291.533 38.2236 291.563 37.6583C291.576 37.41 291.668 37.1753 291.646 36.927ZM291.792 35.3456C291.889 34.7846 291.939 34.215 292.007 33.6497C292.105 32.8404 292.158 32.0275 292.287 31.221C292.356 30.7845 292.349 30.3359 292.378 29.8922C292.454 30.2507 292.474 30.6121 292.5 30.9677C292.573 31.9709 292.679 32.9684 292.797 33.9667C292.866 34.5477 292.889 35.1338 292.95 35.7155C292.978 35.9803 292.873 36.0497 292.632 36.0146C292.538 36.001 292.44 36.0125 292.344 36.0125C291.499 36.0196 291.736 36.0196 291.792 35.3456ZM285.365 31.0765C285.365 29.5266 285.36 27.9766 285.371 26.4274C285.372 26.1956 285.314 26.1312 285.077 26.1341C283.934 26.1469 282.79 26.1498 281.648 26.1326C281.378 26.1283 281.314 26.1942 281.315 26.4618C281.326 29.5259 281.317 32.5892 281.329 35.6533C281.331 35.9502 281.261 36.0218 280.96 36.0196C278.843 36.0046 276.725 36.0053 274.607 36.0196C274.325 36.0218 274.281 35.9144 274.319 35.6919C274.481 34.7352 274.624 33.777 274.887 32.8375C275.147 31.9065 275.465 30.9978 275.849 30.1133C276.544 28.5119 277.412 27.002 278.432 25.5802C278.641 25.289 278.848 24.9956 279.056 24.7036C279.13 24.5985 279.228 24.5634 279.361 24.5634C282.465 24.567 285.57 24.5691 288.674 24.562C288.961 24.562 288.928 24.665 288.833 24.8518C288.146 26.1963 287.601 27.5967 287.158 29.0378C286.791 30.2293 286.497 31.435 286.293 32.6665C286.119 33.7176 285.993 34.7703 285.947 35.8329C285.935 36.1198 285.741 35.9846 285.618 36.0103C285.416 36.0525 285.359 35.9645 285.36 35.762C285.369 34.2007 285.365 32.6379 285.365 31.0765ZM303.391 7.88851C303.551 7.82626 303.726 7.75899 303.892 7.764C304.298 7.77617 304.693 7.61731 305.144 7.70461C304.603 8.06526 304.084 8.40873 303.566 8.7565C302.463 9.49854 301.391 10.2807 300.349 11.1057C299.182 12.0288 298.071 13.0105 296.968 14.008C296.171 14.7286 295.44 15.5064 294.715 16.2871C293.277 17.8363 291.979 19.5022 290.828 21.2732C290.345 22.0167 289.876 22.773 289.481 23.5695C289.416 23.7004 289.365 23.787 289.18 23.7863C286.077 23.777 282.974 23.7784 279.871 23.777C279.863 23.777 279.854 23.767 279.825 23.7484C280.777 22.6342 281.74 21.5544 282.8 20.5677C283.835 19.6052 284.902 18.6793 286.011 17.7977C287.325 16.7522 288.689 15.7776 290.088 14.8531C291.276 14.0689 292.491 13.3232 293.731 12.6191C295.383 11.681 297.055 10.7787 298.771 9.9608C300.294 9.23449 301.815 8.50104 303.391 7.88851ZM271.766 22.7015C272.563 21.7068 273.493 20.8346 274.401 19.943C275.485 18.8796 276.686 17.9515 277.913 17.0614C279.621 15.8213 281.432 14.7401 283.31 13.7676C285.097 12.8417 286.937 12.0388 288.821 11.3247C290.51 10.685 292.232 10.154 293.964 9.64809C294.054 9.62233 294.15 9.62019 294.243 9.60659C295.362 9.22519 296.524 9.01696 297.674 8.76079C298.526 8.57116 299.387 8.42304 300.245 8.25846C300.302 8.24773 300.363 8.25703 300.5 8.25703C299.631 8.66347 298.822 9.01839 298.034 9.41696C296.764 10.0595 295.508 10.7315 294.247 11.3905C292.203 12.5118 290.229 13.7483 288.307 15.0614C287.083 15.8986 285.91 16.8088 284.76 17.7476C283.386 18.8689 282.104 20.0825 280.861 21.3405C280.149 22.0618 279.496 22.8374 278.862 23.626C278.75 23.7648 278.653 23.7784 278.514 23.7784C276 23.7784 273.486 23.7784 270.939 23.7784C271.172 23.3705 271.488 23.0485 271.766 22.7015ZM266.373 35.7212C266.465 34.7001 266.545 33.6769 266.762 32.6722C267.043 31.367 267.449 30.1019 267.956 28.8632C268.559 27.3956 269.357 26.0396 270.231 24.7222C270.296 24.6242 270.385 24.562 270.527 24.562C273.029 24.5698 275.531 24.572 278.033 24.5756C278.04 24.5756 278.048 24.5899 278.085 24.6285C277.094 25.968 276.228 27.3727 275.512 28.8611C274.706 30.5355 274.1 32.2829 273.753 34.1076C273.644 34.6765 273.51 35.2511 273.527 35.8379C273.534 36.0991 273.347 36.0075 273.229 36.0075C271.882 36.0125 270.535 36.011 269.187 36.011C268.345 36.011 267.503 36.001 266.661 36.0175C266.418 36.0225 266.353 35.9488 266.373 35.7212ZM297.897 64.316C296.907 64.1207 295.927 63.8688 294.947 63.6234C293.082 63.1561 291.254 62.5736 289.443 61.9282C287.477 61.2277 285.566 60.4062 283.709 59.4666C282.376 58.7919 281.081 58.0462 279.815 57.2477C278.611 56.4877 277.466 55.6512 276.345 54.7832C274.997 53.7392 273.78 52.5442 272.619 51.3034C271.551 50.1621 270.61 48.9142 269.765 47.5968C268.684 45.9088 267.83 44.1191 267.242 42.2064C266.947 41.2447 266.728 40.268 266.585 39.2712C266.478 38.5277 266.419 37.7828 266.373 37.035C266.361 36.854 266.41 36.7932 266.607 36.7939C268.809 36.801 271.011 36.8003 273.213 36.7946C273.395 36.7946 273.463 36.8325 273.456 37.0279C273.441 37.4687 273.438 37.9102 273.454 38.3509C273.491 39.3778 273.648 40.3882 273.852 41.3957C274.076 42.4934 274.423 43.5531 274.835 44.5871C275.345 45.8709 275.997 47.0916 276.746 48.258C277.299 49.1174 277.913 49.9331 278.539 50.7389C278.849 51.1381 279.195 51.5102 279.542 51.8795C280.08 52.4519 280.609 53.0365 281.183 53.5711C282.149 54.4684 283.146 55.3285 284.186 56.1443C285.406 57.101 286.682 57.9754 287.984 58.814C288.928 59.423 289.898 59.9904 290.88 60.54C292.266 61.3171 293.696 62.0112 295.131 62.691C296.457 63.3193 297.798 63.9168 299.179 64.4198C299.239 64.442 299.291 64.4914 299.381 64.5507C298.842 64.5751 298.372 64.4098 297.897 64.316ZM304.941 65.3629C303.91 65.3379 302.975 64.9965 302.036 64.6531C301.147 64.3275 300.272 63.9647 299.387 63.6277C298.404 63.2534 297.441 62.8312 296.478 62.4083C295.258 61.8724 294.052 61.3056 292.873 60.686C291.232 59.823 289.62 58.9092 288.062 57.9024C287.124 57.297 286.2 56.6709 285.31 56.0026C284.561 55.4394 283.826 54.8512 283.121 54.228C282.355 53.5503 281.592 52.8705 280.884 52.1335C279.918 51.126 279.025 50.0584 278.198 48.9306C277.303 47.7106 276.561 46.409 275.922 45.0508C275.313 43.7585 274.873 42.4032 274.605 40.9971C274.467 40.2758 274.37 39.5517 274.299 38.8196C274.242 38.2257 274.283 37.6368 274.241 37.0479C274.227 36.8432 274.297 36.7932 274.499 36.7939C276.689 36.801 278.878 36.801 281.067 36.7939C281.272 36.7939 281.326 36.8483 281.324 37.0493C281.316 38.6701 281.334 40.2916 281.31 41.9123C281.304 42.3073 281.238 42.7131 281.036 43.0809C280.845 43.43 280.537 43.4909 280.19 43.4472C279.904 43.4114 279.758 43.2011 279.657 42.9535C279.502 42.5714 279.442 42.1742 279.442 41.7649C279.444 40.99 279.437 40.215 279.447 39.4408C279.449 39.2425 279.43 39.1495 279.184 39.1524C278.029 39.1674 276.874 39.1646 275.719 39.1538C275.507 39.1517 275.465 39.2211 275.467 39.415C275.477 40.2494 275.414 41.0887 275.485 41.9166C275.593 43.1853 275.831 44.4254 276.618 45.5016C277.262 46.3825 278.112 46.8898 279.173 47.1009C280.171 47.2991 281.155 47.2526 282.124 46.9549C283.703 46.4705 284.554 45.3227 285 43.8179C285.32 42.7395 285.384 41.634 285.366 40.5163C285.348 39.3721 285.369 38.2279 285.356 37.0837C285.353 36.8497 285.418 36.7896 285.652 36.7889C285.889 36.7881 285.956 36.8533 285.945 37.0858C285.91 37.8322 285.936 38.5792 286.018 39.3205C286.127 40.3123 286.254 41.3048 286.471 42.2801C286.591 42.8182 286.692 43.3621 286.873 43.8873C286.949 44.1063 286.826 44.3274 286.797 44.5449C286.704 45.2333 286.566 45.9152 286.45 46.6C286.419 46.7846 286.435 46.917 286.699 46.8913C286.996 46.8619 287.301 46.9013 287.6 46.8791C287.817 46.8626 287.906 46.9478 287.982 47.1367C288.333 48.0261 288.761 48.8834 289.218 49.722C289.937 51.0415 290.745 52.3067 291.648 53.5131C292.386 54.4992 293.181 55.4344 294.003 56.3525C294.649 57.0738 295.331 57.7593 296.041 58.4112C297.421 59.6792 298.882 60.8505 300.421 61.9311C301.999 63.0388 303.637 64.0456 305.326 64.9737C305.597 65.1232 305.87 65.2713 306.141 65.4202C305.741 65.3429 305.328 65.3722 304.941 65.3629ZM308.018 65.4409C306.13 64.5185 304.295 63.5096 302.528 62.3704C301.302 61.5797 300.12 60.7368 298.977 59.8352C298.245 59.2577 297.543 58.6495 296.847 58.0291C296.196 57.448 295.568 56.8441 294.974 56.2115C294.019 55.1954 293.116 54.1335 292.284 53.0108C291.144 51.4716 290.152 49.8501 289.324 48.1285C289.131 47.7256 288.954 47.3141 288.76 46.8841C289.308 46.8841 289.824 46.8784 290.339 46.8877C290.501 46.8905 290.555 46.8583 290.571 46.678C290.645 45.8293 290.714 44.98 290.843 44.1363C290.882 43.8844 290.896 43.624 290.915 43.3678C290.928 43.181 290.994 43.1603 291.151 43.1617C291.897 43.1682 292.644 43.1832 293.389 43.1553C293.691 43.1438 293.717 43.3213 293.737 43.5102C293.818 44.2902 293.869 45.0737 293.967 45.8515C293.998 46.097 294.01 46.3417 294.037 46.585C294.058 46.7703 294.133 46.897 294.392 46.8927C295.619 46.8726 296.847 46.8734 298.074 46.892C298.36 46.8963 298.397 46.7796 298.36 46.5614C298.25 45.8988 298.131 45.2369 298.024 44.5735C297.938 44.0347 297.868 43.493 297.783 42.9535C297.669 42.2436 297.541 41.5367 297.432 40.8261C297.325 40.1248 297.238 39.4207 297.133 38.7195C297.054 38.1921 296.97 37.6654 296.869 37.1416C296.808 36.8254 296.813 36.7996 297.139 36.7975C297.488 36.796 297.837 36.8103 298.186 36.7924C298.4 36.781 298.445 36.8597 298.438 37.0543C298.423 37.435 298.451 37.8186 298.43 38.1985C298.387 38.9356 298.468 39.669 298.522 40.3975C298.599 41.4315 298.721 42.464 298.854 43.4944C299.111 45.483 299.514 47.4408 300.033 49.3728C300.443 50.9013 300.957 52.4011 301.554 53.8709C301.99 54.9471 302.45 56.0147 302.99 57.0423C303.957 58.8849 305.031 60.6638 306.313 62.3153C307.012 63.2148 307.724 64.0999 308.509 64.9278C308.709 65.1375 308.902 65.3601 309.121 65.6019C308.715 65.6613 308.369 65.6098 308.018 65.4388V65.4409ZM309.984 65.1583C309.984 65.1812 309.98 65.2041 309.973 65.2706C309.021 64.2538 308.09 63.2799 307.268 62.2037C306.71 61.4731 306.159 60.7403 305.657 59.9733C304.639 58.4183 303.741 56.7969 302.974 55.1024C302.529 54.1178 302.132 53.116 301.757 52.1042C301.208 50.6265 300.781 49.1109 300.416 47.5811C300.195 46.6601 300.026 45.7263 299.865 44.7911C299.7 43.8279 299.556 42.8612 299.461 41.8923C299.384 41.098 299.321 40.2987 299.284 39.498C299.246 38.6923 299.244 37.888 299.222 37.083C299.215 36.8468 299.285 36.7917 299.518 36.7924C302.911 36.8003 306.304 36.8003 309.697 36.7924C309.933 36.7924 309.991 36.8526 309.991 37.0851C309.984 46.4426 309.985 55.8001 309.984 65.1583ZM309.659 36.0182C306.29 36.0082 302.922 36.0082 299.553 36.0182C299.285 36.0189 299.204 35.9602 299.221 35.6898C299.289 34.6343 299.335 33.5781 299.43 32.5226C299.512 31.6146 299.604 30.7073 299.74 29.8078C299.905 28.7101 300.117 27.6181 300.33 26.5283C300.443 25.953 300.626 25.3899 300.731 24.8138C300.775 24.5741 300.888 24.5641 301.07 24.5648C302.189 24.5677 303.308 24.5662 304.427 24.5662C306.172 24.5662 307.916 24.5734 309.661 24.5591C309.933 24.5569 309.994 24.6256 309.991 24.8897C309.978 26.6893 309.985 28.4897 309.985 30.2894C309.985 32.089 309.978 33.8894 309.992 35.689C309.994 35.9567 309.929 36.0189 309.659 36.0182ZM309.981 7.63878C309.986 10.8095 309.981 13.9801 309.991 17.1508C309.991 17.3841 309.916 17.4184 309.707 17.4177C307.578 17.4106 305.448 17.4134 303.273 17.4134C304.191 15.4313 305.175 13.5315 306.359 11.7347C307.159 10.5197 308.04 9.36759 308.958 8.24129C309.167 7.98511 309.403 7.75184 309.622 7.50425C309.701 7.41481 309.793 7.37473 309.906 7.40336C310.05 7.43914 309.981 7.55935 309.981 7.63878ZM356.615 37.445C356.541 38.8361 356.335 40.2179 355.954 41.5631C355.525 43.0809 354.971 44.5549 354.212 45.9424C353.484 47.2726 352.643 48.5299 351.709 49.7328C350.65 51.0981 349.437 52.3188 348.173 53.4852C346.982 54.5858 345.678 55.5589 344.334 56.482C342.849 57.5017 341.3 58.4062 339.707 59.2441C337.915 60.1865 336.061 60.9894 334.163 61.7049C333.08 62.1135 331.987 62.4892 330.883 62.8305C329.233 63.3407 327.565 63.7851 325.87 64.1379C324.602 64.4026 323.334 64.6516 322.053 64.8477C321.171 64.9822 320.289 65.1082 319.402 65.2055C318.308 65.325 317.216 65.4366 316.116 65.4953C315.262 65.5411 314.409 65.6162 313.553 65.6363C313.267 65.6434 313.228 65.5518 313.228 65.2992C313.236 61.33 313.234 57.36 313.234 53.3908V43.1274C313.234 35.7606 313.234 28.3938 313.234 21.0271C313.234 20.7642 313.366 20.6328 313.631 20.6328C316.795 20.6328 319.96 20.6328 323.124 20.6328C323.414 20.6328 323.559 20.4892 323.559 20.202C323.559 19.3798 323.545 18.5569 323.567 17.7347C323.574 17.4621 323.497 17.407 323.231 17.4077C320.019 17.4177 316.807 17.4091 313.594 17.422C313.293 17.4235 313.225 17.3505 313.226 17.0549C313.238 13.9558 313.238 10.8567 313.226 7.75756C313.225 7.4606 313.293 7.37473 313.596 7.39262C314.335 7.43699 315.076 7.42983 315.815 7.47563C316.677 7.52858 317.541 7.58296 318.396 7.69459C319.281 7.81051 320.169 7.90282 321.053 8.0259C322.028 8.16186 323 8.31642 323.967 8.48673C324.905 8.65131 325.832 8.87886 326.762 9.0878C328.959 9.58226 331.105 10.237 333.228 10.9748C334.288 11.3426 335.332 11.749 336.36 12.1955C337.347 12.6241 338.334 13.0549 339.288 13.5537C340.613 14.247 341.913 14.9791 343.181 15.7741C344.257 16.4496 345.271 17.2074 346.294 17.9544C346.844 18.3566 347.331 18.8417 347.859 19.2753C348.674 19.9444 349.39 20.7136 350.123 21.4628C351.303 22.6686 352.317 24.0095 353.234 25.4221C354.396 27.2117 355.272 29.133 355.874 31.1717C356.121 32.0117 356.287 32.8754 356.42 33.7456C356.608 34.9763 356.683 36.2114 356.617 37.4479L356.615 37.445Z" fill="black"></path></g><mask id="mask1_1_3" style="mask-type:luminance" maskUnits="userSpaceOnUse" x="0" y="0" width="232" height="74"><path d="M232 0H0V73.5317H232V0Z" fill="white"></path></mask><g mask="url(#mask1_1_3)"><path d="M71.4057 28.6624L72.0712 26.8879H73.271V14.6072H71.4057V12.8629H77.1125L76.4571 14.6072H75.2573V26.8879H77.1125V28.6624H71.4057Z" fill="black"></path><path d="M78.0199 30.6789C78.0199 29.1464 78.887 28.1785 80.6111 27.755C80.2969 27.6092 80.0331 27.3731 79.8536 27.0768C79.674 26.7805 79.5867 26.4374 79.6029 26.0913C79.6327 25.6471 79.7826 25.2192 80.0365 24.8534C80.2905 24.4877 80.6389 24.1976 81.0447 24.0143C80.4187 23.7167 79.8938 23.2417 79.5353 22.6484C79.1769 22.0551 79.0005 21.3696 79.0282 20.677C79.0282 17.9042 80.7523 16.5834 83.4444 16.5834C83.994 16.5665 84.5427 16.6415 85.0677 16.8052H89.1612L88.5865 18.3076H86.9632C87.4458 18.9749 87.6939 19.7832 87.669 20.6064C87.669 23.0666 85.8844 24.4176 83.3133 24.4176C83.0026 24.4216 82.6922 24.398 82.3857 24.3471C82.0866 24.4601 81.8256 24.6555 81.6329 24.9107C81.4402 25.1658 81.3237 25.4703 81.2968 25.7889C81.2968 26.3837 81.8916 26.6963 83.0511 26.6963H85.0677C87.4573 26.6963 88.9394 27.7751 88.9394 29.9026C88.9394 32.6249 86.9229 33.9356 82.8898 33.9356C80.0566 33.976 78.0199 33.0181 78.0199 30.6789ZM87.0943 30.074C87.125 29.8325 87.0919 29.5871 86.9981 29.3624C86.9043 29.1377 86.7532 28.9415 86.5599 28.7935C85.8803 28.5148 85.1444 28.4008 84.4123 28.4608H82.3958C80.7321 28.4608 79.9154 29.1666 79.9154 30.6084C79.9154 31.8485 80.9237 32.4938 82.8293 32.4938C85.7029 32.4938 87.0741 31.6973 87.0741 30.074H87.0943ZM85.7029 20.5862C85.7029 18.8621 84.8862 17.995 83.2729 17.995C81.6597 17.995 80.833 18.8823 80.833 20.6064C80.8115 20.9393 80.8586 21.2731 80.9713 21.5872C81.0839 21.9012 81.2598 22.1888 81.488 22.4322C81.7162 22.6755 81.9919 22.8695 82.2981 23.0021C82.6042 23.1347 82.9343 23.2032 83.2679 23.2032C83.6015 23.2032 83.9316 23.1347 84.2378 23.0021C84.5439 22.8695 84.8196 22.6755 85.0478 22.4322C85.276 22.1888 85.4519 21.9012 85.5646 21.5872C85.6772 21.2731 85.7243 20.9393 85.7029 20.6064V20.5862Z" fill="black"></path><path d="M90.9661 28.6624V12.6008L92.912 11.8446V28.6624H90.9661Z" fill="black"></path><path d="M105.707 21.9373V23.1069H97.5803C97.6509 25.7889 99.0019 27.2206 101.371 27.2206C102.48 27.2207 103.579 27.0258 104.62 26.6449L105.173 28.1079C103.951 28.6589 102.62 28.9244 101.281 28.8842C97.8929 28.8842 95.5739 26.777 95.5739 22.8347C95.5739 18.8923 97.671 16.5935 100.817 16.5935C103.963 16.5935 105.707 18.7008 105.707 21.9373ZM97.6408 21.5542H103.69C103.69 19.5376 102.783 18.1765 100.817 18.1765C98.8507 18.1765 97.8021 19.4368 97.6307 21.5542H97.6408Z" fill="black"></path><path d="M111.262 28.8842C109.978 28.9522 108.698 28.6919 107.542 28.128L108.117 26.6257C109.127 27.0483 110.208 27.2808 111.303 27.3113C113.319 27.3113 114.116 26.6257 114.116 25.567C114.116 24.6798 113.511 24.1454 111.192 23.2581C108.873 22.3708 107.522 21.6651 107.522 19.7191C107.522 17.7732 109.306 16.5834 111.968 16.5834C113.271 16.5744 114.561 16.8461 115.749 17.3799L115.154 18.9427C114.11 18.4696 112.983 18.2091 111.837 18.1765C110.244 18.1765 109.377 18.731 109.377 19.6082C109.377 20.4854 110.153 21.0097 112.402 21.8667C114.65 22.7237 115.961 23.4799 115.961 25.3855C115.951 27.6844 114.156 28.8842 111.262 28.8842Z" fill="black"></path><path d="M120.488 13.5888C120.488 13.8142 120.421 14.0345 120.296 14.2218C120.171 14.4092 119.993 14.5552 119.785 14.6414C119.576 14.7277 119.347 14.7502 119.126 14.7063C118.905 14.6623 118.702 14.5538 118.543 14.3945C118.384 14.2351 118.275 14.0321 118.231 13.8111C118.187 13.5901 118.21 13.361 118.296 13.1528C118.382 12.9446 118.528 12.7667 118.716 12.6415C118.903 12.5163 119.123 12.4495 119.349 12.4495C119.651 12.4495 119.941 12.5695 120.154 12.7832C120.368 12.9969 120.488 13.2867 120.488 13.5888ZM120.306 28.7128H118.361V16.8052H120.306V28.7128Z" fill="black"></path><path d="M132.365 20.5862V28.6524H130.954L130.571 26.9686H130.49C130.055 27.6107 129.456 28.1256 128.757 28.4605C128.057 28.7953 127.28 28.9381 126.507 28.8742C124.36 28.8742 122.767 27.7651 122.767 25.3553C122.767 22.9456 124.582 21.6853 128.453 21.5743L130.47 21.5038V20.798C130.47 18.7815 129.562 18.1664 128.01 18.1664C126.84 18.2157 125.696 18.5257 124.662 19.0739L124.067 17.6119C125.313 16.9608 126.695 16.6152 128.1 16.6036C130.994 16.6036 132.365 17.8236 132.365 20.5862ZM128.695 22.9355C125.731 23.0464 124.773 23.8833 124.773 25.3856C124.773 26.7165 125.66 27.3114 126.951 27.3114C127.412 27.36 127.879 27.3066 128.317 27.155C128.756 27.0034 129.155 26.7573 129.488 26.4341C129.821 26.1109 130.079 25.7185 130.243 25.2847C130.408 24.8508 130.475 24.3862 130.44 23.9236V22.8649L128.695 22.9355Z" fill="black"></path><path d="M149.224 23.7723H142.962L141.077 28.6624H139.06L145.19 12.7924H146.985L153.136 28.6624H151.119L149.224 23.7723ZM146.854 17.2186C146.723 16.8657 146.259 15.4038 146.108 14.8492C145.886 15.7567 145.594 16.7145 145.422 17.2186L143.628 21.9978H148.669L146.854 17.2186Z" fill="black"></path><path d="M153.519 22.754C153.519 18.7209 155.465 16.5834 158.409 16.5834C159.119 16.547 159.826 16.6872 160.469 16.9917C161.111 17.2961 161.668 17.7552 162.089 18.3277H162.22C162.22 17.9547 162.089 17.027 162.089 16.5834V12.6008L164.035 11.8446V28.6624H162.462L162.17 27.0694H162.089C161.678 27.6627 161.123 28.1409 160.475 28.4586C159.827 28.7763 159.109 28.9229 158.389 28.8842C155.444 28.8842 153.519 26.8274 153.519 22.754ZM162.109 23.127V22.7742C162.109 19.83 161.313 18.1966 158.681 18.1966C156.574 18.1966 155.535 19.9913 155.535 22.7943C155.535 25.5973 156.543 27.271 158.701 27.271C161.202 27.271 162.109 25.8998 162.109 23.127Z" fill="black"></path><path d="M165.648 16.8052H167.725L170.246 23.7925C170.645 24.8197 170.982 25.8702 171.254 26.9383H171.335C171.496 26.2023 172 24.7403 172.343 23.7925L174.864 16.8052H176.951L172.414 28.6624H170.175L165.648 16.8052Z" fill="black"></path><path d="M187.729 21.9373V23.1069H179.613C179.673 25.7889 181.024 27.2206 183.394 27.2206C184.502 27.2207 185.601 27.0258 186.642 26.6449L187.195 28.1079C185.974 28.6599 184.642 28.9254 183.303 28.8842C179.915 28.8842 177.596 26.777 177.596 22.8347C177.596 18.8923 179.693 16.5935 182.839 16.5935C185.985 16.5935 187.729 18.7008 187.729 21.9373ZM179.663 21.5542H185.713C185.713 19.5376 184.805 18.1765 182.839 18.1765C180.873 18.1765 179.855 19.4368 179.653 21.5542H179.663Z" fill="black"></path><path d="M199.828 20.9391V28.6624H197.902V21.0702C197.902 19.1646 197.066 18.2168 195.251 18.2168C192.619 18.2168 191.782 19.7393 191.782 22.512V28.6624H189.826V16.8053H191.399L191.692 18.4185H191.802C192.219 17.8203 192.781 17.338 193.435 17.017C194.09 16.696 194.815 16.5468 195.543 16.5834C198.376 16.5834 199.828 17.8841 199.828 20.9391Z" fill="black"></path><path d="M207.753 26.9988L208.288 28.4003C207.616 28.7387 206.871 28.905 206.12 28.8843C204.254 28.8843 202.641 28.0877 202.641 25.2142V14.8089L204.587 14.0829V16.8053H208.015V18.3076H204.587V25.2041C204.587 26.6459 205.364 27.3315 206.452 27.3315C206.904 27.3085 207.346 27.1954 207.753 26.9988Z" fill="black"></path><path d="M212.603 13.5888C212.603 13.8142 212.536 14.0345 212.411 14.2218C212.286 14.4092 212.108 14.5552 211.9 14.6414C211.691 14.7277 211.462 14.7502 211.241 14.7063C211.02 14.6623 210.817 14.5538 210.658 14.3945C210.499 14.2351 210.39 14.0321 210.346 13.8111C210.302 13.5901 210.325 13.361 210.411 13.1528C210.497 12.9446 210.643 12.7667 210.831 12.6415C211.018 12.5163 211.238 12.4495 211.464 12.4495C211.766 12.4495 212.056 12.5695 212.269 12.7832C212.483 12.9969 212.603 13.2867 212.603 13.5888ZM212.421 28.7128H210.476V16.8052H212.421V28.7128Z" fill="black"></path><path d="M218.723 28.8843C217.442 28.9514 216.165 28.6912 215.013 28.1281L215.587 26.6258C216.598 27.0484 217.678 27.2808 218.774 27.3114C220.79 27.3114 221.587 26.6258 221.587 25.5671C221.587 24.6798 220.982 24.1454 218.663 23.2582C216.344 22.3709 214.993 21.6651 214.993 19.7191C214.993 17.7732 216.777 16.5834 219.439 16.5834C220.742 16.5763 222.031 16.8479 223.22 17.38L222.625 18.9428C221.581 18.4696 220.454 18.2091 219.308 18.1765C217.715 18.1765 216.848 18.7311 216.848 19.6082C216.848 20.4854 217.624 21.0097 219.873 21.8668C222.121 22.7238 223.432 23.48 223.432 25.3856C223.462 27.6844 221.627 28.8843 218.723 28.8843Z" fill="black"></path><path d="M230.963 26.9988L231.498 28.4003C230.826 28.7387 230.082 28.905 229.33 28.8843C227.465 28.8843 225.852 28.0877 225.852 25.2142V14.8089L227.797 14.0829V16.8053H231.226V18.3076H227.797V25.2041C227.797 26.6459 228.574 27.3315 229.663 27.3315C230.114 27.3085 230.556 27.1954 230.963 26.9988Z" fill="black"></path><path d="M71.2948 46.4784C71.2948 42.4454 73.2407 40.3078 76.1849 40.3078C76.8944 40.2741 77.6013 40.4155 78.2431 40.7198C78.8849 41.024 79.442 41.4816 79.865 42.0521H79.9961C79.9961 41.6791 79.865 40.7515 79.865 40.3078V36.295L81.811 35.5388V52.4272H80.2381L79.9457 50.8341H79.865C79.4545 51.4274 78.899 51.9057 78.2512 52.2234C77.6035 52.5411 76.8851 52.6876 76.1647 52.649C73.2206 52.6087 71.2948 50.5518 71.2948 46.4784ZM79.8852 46.8616V46.5087C79.8852 43.5645 79.0887 41.9211 76.4571 41.9211C74.3498 41.9211 73.3113 43.7158 73.3113 46.5288C73.3113 49.3419 74.3196 50.9954 76.4773 50.9954C78.9778 50.9954 79.8852 49.6242 79.8852 46.8616Z" fill="black"></path><path d="M93.9304 45.6617V46.8414H85.8643C85.9248 49.5133 87.2759 50.9551 89.6453 50.9551C90.7374 50.9591 91.822 50.7749 92.8516 50.4106L93.4061 51.8726C92.179 52.4163 90.8457 52.6782 89.5041 52.6389C86.1264 52.6389 83.7974 50.5417 83.7974 46.5893C83.7974 42.6369 85.9046 40.328 89.0403 40.328C92.176 40.328 93.9304 42.4353 93.9304 45.6617ZM85.8643 45.2887H91.9139C91.9139 43.2721 91.0064 41.9009 89.0403 41.9009C87.0742 41.9009 86.0559 43.1612 85.8542 45.2887H85.8643Z" fill="black"></path><path d="M96.5014 52.4272V36.295L98.4474 35.5388V52.4272H96.5014Z" fill="black"></path><path d="M111.545 52.6087C110.063 52.6657 108.586 52.4115 107.209 51.8625L107.824 50.2191C109.04 50.6829 110.334 50.9088 111.635 50.8845C113.985 50.8845 115.195 49.8763 115.195 48.3437C115.195 46.8111 114.338 46.1255 111.484 45.087C108.782 44.0788 107.451 42.8487 107.451 40.3986C107.451 37.9485 109.468 36.3655 112.492 36.3655C113.994 36.3537 115.481 36.656 116.858 37.2528L116.213 38.9568C115.027 38.4315 113.749 38.147 112.452 38.1199C110.436 38.1199 109.427 39.0475 109.427 40.4188C109.427 42.0118 110.315 42.6571 112.886 43.6049C115.668 44.6131 117.201 45.6819 117.201 48.1622C117.191 50.9753 115.003 52.6087 111.545 52.6087Z" fill="black"></path><path d="M128.695 45.6617V46.8414H120.629C120.69 49.5133 122.041 50.9551 124.41 50.9551C125.518 50.9552 126.618 50.7603 127.659 50.3794L128.211 51.8424C126.988 52.3859 125.658 52.6478 124.319 52.6087C120.932 52.6087 118.613 50.5115 118.613 46.5591C118.613 42.6067 120.71 40.318 123.856 40.318C127.001 40.318 128.695 42.4353 128.695 45.6617ZM120.629 45.2887H126.679C126.679 43.2722 125.771 41.9009 123.805 41.9009C121.839 41.9009 120.821 43.1613 120.619 45.2887H120.629ZM126.78 35.6598C125.86 36.8876 124.797 38.0012 123.614 38.977H122.333V38.7148C123.122 37.6829 123.824 36.5868 124.43 35.438H126.78V35.6598Z" fill="black"></path><path d="M141.702 46.4381C141.702 50.4712 139.756 52.6087 136.812 52.6087C136.106 52.6431 135.402 52.5039 134.762 52.2033C134.122 51.9027 133.566 51.4499 133.142 50.8845H133.011C133.011 51.3988 133.142 52.2759 133.142 52.8305V57.7004H131.196V40.5599H132.789L133.051 42.1731H133.142C133.542 41.5678 134.095 41.0786 134.745 40.7547C135.394 40.4308 136.117 40.2836 136.842 40.328C139.756 40.328 141.702 42.3445 141.702 46.4381ZM133.142 46.065V46.4381C133.142 49.3621 133.938 50.9954 136.529 50.9954C138.677 50.9954 139.695 49.0697 139.695 46.4179C139.695 43.7662 138.687 41.9513 136.479 41.9513C134.099 41.9513 133.182 43.2923 133.142 46.065Z" fill="black"></path><path d="M149.052 50.7333L149.586 52.1247C148.912 52.4632 148.163 52.6294 147.409 52.6087C145.553 52.6087 143.94 51.8121 143.94 48.9386V38.5434L145.886 37.8073V40.5297H149.314V42.032H145.886V48.8982C145.886 50.33 146.663 51.0156 147.741 51.0156C148.192 51.0042 148.637 50.9084 149.052 50.7333Z" fill="black"></path><path d="M153.892 37.3032C153.892 37.5286 153.825 37.7488 153.7 37.9362C153.575 38.1236 153.397 38.2696 153.188 38.3558C152.98 38.4421 152.751 38.4646 152.53 38.4207C152.309 38.3767 152.106 38.2682 151.947 38.1089C151.787 37.9495 151.679 37.7465 151.635 37.5255C151.591 37.3045 151.614 37.0754 151.7 36.8672C151.786 36.659 151.932 36.4811 152.119 36.3559C152.307 36.2307 152.527 36.1639 152.752 36.1639C153.055 36.1639 153.344 36.2839 153.558 36.4976C153.772 36.7113 153.892 37.001 153.892 37.3032ZM153.72 52.4272H151.774V40.5297H153.72V52.4272Z" fill="black"></path><path d="M173.966 44.6636V52.4272H172.041V44.7543C172.041 42.8991 171.264 41.9513 169.631 41.9513C167.332 41.9513 166.425 43.3226 166.425 45.8432V52.4272H164.499V44.7543C164.499 42.8991 163.722 41.9513 162.059 41.9513C159.669 41.9513 158.893 43.4738 158.893 46.2364V52.4272H156.947V40.5297H158.52L158.812 42.1429H158.923C159.293 41.5601 159.811 41.0853 160.423 40.7667C161.036 40.448 161.722 40.2967 162.412 40.328C164.227 40.328 165.436 40.9733 166.041 42.3445H166.152C166.552 41.7009 167.115 41.1749 167.785 40.8206C168.455 40.4663 169.207 40.2963 169.964 40.328C172.635 40.328 173.966 41.6186 173.966 44.6636Z" fill="black"></path><path d="M181.538 52.6087C178.393 52.6087 176.094 50.3804 176.094 46.4381C176.094 42.4958 178.191 40.328 181.599 40.328C184.805 40.328 187.064 42.5462 187.064 46.4582C187.064 50.3703 184.916 52.6087 181.538 52.6087ZM181.538 50.9954C183.928 50.9954 185.007 49.2511 185.007 46.4381C185.007 43.625 183.928 41.9513 181.518 41.9513C179.108 41.9513 178.06 43.625 178.06 46.4381C178.06 49.2511 179.169 50.9954 181.579 50.9954H181.538Z" fill="black"></path><path d="M200.121 52.4272H195.714V36.5873H200.584C205.343 36.5873 208.378 39.2693 208.378 44.3409C208.378 49.6645 205.323 52.4272 200.121 52.4272ZM200.292 38.3115H197.711V50.6829H199.858C204.123 50.6829 206.271 48.5655 206.271 44.4014C206.271 40.2373 204.103 38.3115 200.292 38.3115Z" fill="black"></path><path d="M214.811 35.6598C213.892 36.8876 212.829 38.0012 211.645 38.977H210.365V38.7148C211.154 37.6829 211.855 36.5868 212.462 35.438H214.811V35.6598ZM210.728 52.4272V40.5297H212.674V52.4272H210.728Z" fill="black"></path><path d="M224.722 44.3611V52.4272H223.311L222.938 50.7535H222.827C222.385 51.4009 221.778 51.9182 221.069 52.2516C220.36 52.585 219.574 52.7222 218.794 52.649C216.646 52.649 215.053 51.55 215.053 49.1301C215.053 46.7103 216.868 45.4601 220.74 45.3492L222.756 45.2887V44.5728C222.756 42.5563 221.849 41.9412 220.296 41.9412C219.13 41.9893 217.989 42.2994 216.959 42.8487L216.354 41.3867C217.599 40.7356 218.982 40.39 220.387 40.3784C223.351 40.328 224.722 41.548 224.722 44.3611ZM221.052 46.7103C218.088 46.8212 217.13 47.6581 217.13 49.1705C217.13 50.4913 218.017 51.0963 219.308 51.0963C219.776 51.1508 220.251 51.1001 220.697 50.9479C221.143 50.7956 221.55 50.5456 221.887 50.2161C222.224 49.8866 222.484 49.4859 222.646 49.0434C222.809 48.6008 222.871 48.1275 222.827 47.6581V46.5893L221.052 46.7103Z" fill="black"></path><path d="M225.186 37.3033C225.178 37.1081 225.21 36.9133 225.28 36.731C225.35 36.5487 225.457 36.3829 225.594 36.2438C225.732 36.1047 225.896 35.9954 226.077 35.9227C226.259 35.85 226.453 35.8154 226.648 35.8211C226.843 35.8183 227.036 35.8549 227.216 35.9286C227.396 36.0024 227.559 36.1118 227.695 36.2503C227.832 36.3887 227.939 36.5534 228.01 36.7344C228.082 36.9153 228.116 37.1088 228.11 37.3033C228.11 37.691 227.956 38.0629 227.682 38.337C227.408 38.6112 227.036 38.7652 226.648 38.7652C226.26 38.7652 225.889 38.6112 225.614 38.337C225.34 38.0629 225.186 37.691 225.186 37.3033ZM227.868 37.3033C227.874 37.138 227.845 36.9733 227.785 36.8192C227.725 36.6652 227.634 36.5249 227.518 36.4071C227.402 36.2892 227.264 36.1961 227.111 36.1335C226.958 36.0709 226.793 36.0401 226.628 36.0429C226.381 36.0409 226.138 36.1123 225.932 36.248C225.725 36.3838 225.563 36.5777 225.467 36.8054C225.37 37.0331 225.343 37.2843 225.39 37.5272C225.436 37.7701 225.553 37.9938 225.727 38.17C225.9 38.3463 226.122 38.4671 226.364 38.5173C226.606 38.5675 226.858 38.5448 227.087 38.452C227.316 38.3593 227.513 38.2006 227.652 37.9961C227.791 37.7916 227.866 37.5505 227.868 37.3033ZM226.073 36.4261H226.588C227.031 36.4261 227.223 36.5975 227.223 36.9504C227.225 37.0465 227.197 37.1409 227.142 37.2204C227.088 37.2999 227.011 37.3606 226.92 37.394L227.384 38.1704H227.031L226.628 37.4847H226.386V38.1704H226.073V36.4261ZM226.588 37.2428C226.629 37.2469 226.671 37.2425 226.71 37.2298C226.75 37.2172 226.786 37.1965 226.818 37.169C226.849 37.1416 226.874 37.108 226.892 37.0704C226.909 37.0328 226.919 36.9919 226.92 36.9504C226.92 36.779 226.809 36.6882 226.588 36.6882H226.386V37.2428H226.588Z" fill="black"></path><path d="M34.8461 30.4168C32.4767 32.7862 31.3273 33.9155 30.7425 36.789C30.7425 36.8278 30.7271 36.865 30.6997 36.8924C30.6722 36.9198 30.635 36.9352 30.5963 36.9352C30.5575 36.9352 30.5203 36.9198 30.4929 36.8924C30.4655 36.865 30.4501 36.8278 30.4501 36.789V33.2702C30.4501 31.0117 32.4666 28.9447 34.8562 26.5551L36.782 24.6294C39.474 21.9373 40.1294 18.8117 37.9818 16.9565C37.8003 16.7951 37.8911 16.6036 38.133 16.7145C40.8049 17.9345 42.9122 22.3608 38.3246 26.9383L34.8461 30.4168ZM30.44 39.4912V43.0302C30.44 43.2419 30.682 43.2419 30.7324 43.0302C31.3172 40.1566 32.4666 38.9971 34.836 36.6378L38.5868 32.8971C43.1744 28.3095 43.9608 23.8227 41.6116 21.0299C41.4603 20.8383 41.2889 20.9492 41.3897 21.1811C42.9324 24.6697 39.232 28.37 37.4777 30.1244L34.8259 32.7761C32.4464 35.1455 30.44 37.2024 30.44 39.4609V39.4912ZM20.2767 28.0675C15.6891 32.6451 17.7964 37.0713 20.4683 38.2913C20.7002 38.4022 20.801 38.2107 20.6195 38.0594C18.4719 36.1941 19.1273 33.0786 21.8193 30.3765L29.4418 22.754C31.8314 20.3644 33.8479 18.3075 33.8479 16.049V12.5302C33.8479 12.3185 33.5959 12.3185 33.5555 12.5302C32.9606 15.4037 31.8213 16.5632 29.4519 18.8923L20.2767 28.0675ZM33.8479 9.8583V6.30921C33.8479 6.09747 33.6059 6.09747 33.5656 6.30921C32.9707 9.18276 31.8314 10.3423 29.462 12.7016L20.0145 22.1793C15.4269 26.7669 14.6405 31.2537 16.9898 34.0465C17.141 34.2381 17.3124 34.1272 17.2116 33.8953C15.6689 30.4067 19.3592 26.7165 21.1236 24.952L29.4721 16.6036C31.8415 14.1737 33.8479 12.0966 33.8479 9.8583ZM19.0164 16.9161C15.0741 20.8585 14.5296 24.9823 15.3665 27.7449C15.437 27.9768 15.6387 27.9869 15.6387 27.7449C15.6387 25.4662 16.2739 23.5001 20.4481 19.3259L29.4418 10.3423C31.8314 7.9426 33.8479 5.88574 33.8479 3.62723V0.158802C33.8479 -0.0529338 33.5959 -0.0529338 33.5555 0.158802C32.9606 3.03235 31.8112 4.19186 29.4519 6.53103L19.0164 16.9161ZM24.5316 45.45C24.4932 45.4474 24.4573 45.4304 24.4311 45.4023C24.4049 45.3742 24.3903 45.3372 24.3904 45.2988V43.3528C24.3904 43.3154 24.4053 43.2795 24.4318 43.253C24.4582 43.2265 24.4941 43.2117 24.5316 43.2117H27.9899C28.0282 43.2091 28.0642 43.192 28.0904 43.164C28.1166 43.1359 28.1312 43.0988 28.1311 43.0604C28.1311 41.2355 26.7397 39.9852 21.1942 40.9531L9.23621 42.9697C9.23621 42.9697 0.161835 52.044 0.0610091 52.1751C0.0308438 52.2019 0.0104577 52.238 0.00307023 52.2776C-0.00431722 52.3173 0.00171497 52.3582 0.0202142 52.3941C0.0387134 52.4299 0.0686254 52.4586 0.105226 52.4755C0.141827 52.4925 0.183031 52.4968 0.222331 52.4877C0.383653 52.4272 20.1658 49.0596 20.1658 49.0596C24.6425 48.2933 27.1127 50.4107 27.8588 52.4272C27.9193 52.6087 28.1311 52.5784 28.1311 52.4272V45.6416C28.1311 45.6041 28.1162 45.5682 28.0897 45.5418C28.0633 45.5153 28.0273 45.5004 27.9899 45.5004L24.5316 45.45ZM38.8086 41.1044L34.8562 45.0568C32.4565 47.4564 30.4501 49.5133 30.4501 51.7718V52.4272C30.4501 52.5986 30.6618 52.6288 30.7324 52.4272C31.4684 50.4107 33.9387 48.253 38.4658 49.0193C38.4658 49.0193 58.1975 52.4272 58.3588 52.4373C58.399 52.4502 58.4424 52.4488 58.4816 52.4332C58.5208 52.4176 58.5534 52.3888 58.5737 52.3518C58.594 52.3148 58.6007 52.2719 58.5928 52.2304C58.5849 52.189 58.5627 52.1516 58.5302 52.1247L49.3449 42.9193L38.8086 41.1044ZM43.2349 27.2206C43.1542 26.9887 42.9626 26.9786 42.9626 27.2206C42.9626 29.4993 42.3274 31.4654 38.1532 35.6396L34.8562 38.9366C33.4909 40.1988 32.2824 41.6206 31.2567 43.1713H34.5134C34.6344 43.0403 34.7654 42.9193 34.8965 42.7882L39.6253 38.0494C43.5172 34.107 44.0717 29.9328 43.2349 27.2206ZM30.4501 49.1503C30.4501 49.3721 30.6921 49.3721 30.7425 49.1503C30.9724 47.8233 31.5189 46.5713 32.3355 45.5004H30.5912C30.5538 45.5004 30.5179 45.5153 30.4914 45.5418C30.4649 45.5682 30.4501 45.6041 30.4501 45.6416V49.1503Z" fill="black"></path><path d="M55.6466 45.823C55.641 45.6287 55.6752 45.4352 55.7474 45.2546C55.8195 45.074 55.9279 44.9101 56.0659 44.7731C56.2038 44.636 56.3684 44.5288 56.5495 44.4579C56.7306 44.387 56.9243 44.3541 57.1187 44.3611C57.3114 44.3583 57.5027 44.3943 57.6813 44.4668C57.8599 44.5393 58.0222 44.6469 58.1585 44.7832C58.2948 44.9195 58.4024 45.0818 58.4749 45.2604C58.5474 45.439 58.5834 45.6303 58.5806 45.823C58.5501 46.1911 58.3823 46.5343 58.1106 46.7844C57.8388 47.0345 57.483 47.1734 57.1136 47.1734C56.7443 47.1734 56.3884 47.0345 56.1167 46.7844C55.8449 46.5343 55.6771 46.1911 55.6466 45.823ZM58.3588 45.823C58.3588 45.4928 58.2276 45.1761 57.9941 44.9425C57.7606 44.709 57.4439 44.5778 57.1136 44.5778C56.7834 44.5778 56.4666 44.709 56.2331 44.9425C55.9996 45.1761 55.8684 45.4928 55.8684 45.823C55.8528 45.996 55.8735 46.1703 55.929 46.3348C55.9845 46.4993 56.0736 46.6505 56.1908 46.7787C56.3079 46.9068 56.4505 47.0092 56.6094 47.0792C56.7682 47.1493 56.94 47.1854 57.1136 47.1854C57.2873 47.1854 57.459 47.1493 57.6179 47.0792C57.7768 47.0092 57.9193 46.9068 58.0365 46.7787C58.1536 46.6505 58.2428 46.4993 58.2983 46.3348C58.3538 46.1703 58.3744 45.996 58.3588 45.823ZM56.5641 44.9559H57.0783C57.5119 44.9559 57.7135 45.1273 57.7135 45.4701C57.7168 45.5692 57.6882 45.6668 57.6319 45.7484C57.5757 45.8301 57.4947 45.8916 57.401 45.9239L57.8648 46.7002H57.522L57.1187 46.0045H56.8767V46.7002H56.5641V44.9559ZM57.0682 45.7625C57.28 45.7625 57.401 45.6415 57.401 45.4802C57.401 45.3189 57.3001 45.208 57.0682 45.208H56.8767V45.7625H57.0682Z" fill="black"></path><path d="M75.2473 73.3789H72.6964V64.244H75.5195C78.2721 64.244 80.0264 65.7867 80.0264 68.7207C80.0264 71.806 78.2519 73.3789 75.2473 73.3789ZM75.3481 65.222H73.8559V72.3908H75.096C77.5663 72.3908 78.8064 71.1607 78.8064 68.761C78.8064 66.3614 77.5562 65.222 75.3481 65.222Z" fill="black"></path><path d="M81.0548 73.3789L81.4379 72.3706H82.1337V65.3128H81.0548V64.3045H84.3619L83.9788 65.3128H83.2831V72.3706H84.3619V73.3789H81.0548Z" fill="black"></path><path d="M89.0403 73.3789H87.8909L84.6241 64.244H85.8239L87.8404 70.102C88.0719 70.7622 88.2638 71.4356 88.4152 72.1186C88.5541 71.4325 88.7463 70.7583 88.9899 70.102L91.0064 64.2642H92.2264L89.0403 73.3789Z" fill="black"></path><path d="M92.5591 73.3789L92.9423 72.3706H93.6279V65.3128H92.5591V64.3045H95.8562L95.473 65.3128H94.7773V72.3706H95.8461V73.3789H92.5591Z" fill="black"></path><path d="M99.4154 73.51C98.5573 73.5435 97.7019 73.3957 96.9048 73.0764L97.2678 72.1286C97.9703 72.3915 98.7157 72.5214 99.4658 72.5118C100.827 72.5118 101.482 71.9471 101.482 71.0397C101.482 70.1323 100.978 69.7592 99.3246 69.1543C97.6711 68.5493 96.9754 67.8637 96.9754 66.442C96.9754 65.0204 98.1651 64.1129 99.8892 64.1129C100.757 64.1016 101.616 64.277 102.41 64.6272L102.037 65.6354C101.355 65.3266 100.618 65.1586 99.8691 65.1414C98.7297 65.1414 98.1349 65.6858 98.1349 66.4723C98.1349 67.2587 98.6491 67.7729 100.151 68.3174C101.654 68.8619 102.652 69.5172 102.652 70.959C102.682 72.5924 101.412 73.51 99.4154 73.51Z" fill="black"></path><path d="M103.66 73.3789L104.043 72.3706H104.739V65.3128H103.66V64.3045H106.967L106.584 65.3128H105.868V72.3706H106.947V73.3789H103.66Z" fill="black"></path><path d="M112.24 73.51C109.387 73.51 108.016 71.6144 108.016 68.7812C108.016 65.948 109.387 64.1029 112.25 64.1029C115.114 64.1029 116.445 65.9581 116.445 68.8014C116.445 71.6447 114.993 73.51 112.24 73.51ZM112.24 72.5017C114.307 72.5017 115.265 71.0901 115.265 68.7913C115.265 66.4924 114.338 65.101 112.24 65.101C110.143 65.101 109.216 66.4824 109.216 68.7913C109.216 71.1002 110.173 72.5118 112.24 72.5118V72.5017ZM114.045 61.4108C113.512 62.1235 112.896 62.77 112.21 63.3366H111.474V63.1853C111.925 62.585 112.329 61.9513 112.684 61.2898H114.045V61.4108Z" fill="black"></path><path d="M124.108 73.3789L119.218 65.7867C119.218 66.3916 119.318 67.3394 119.318 68.2771V73.3789H118.26V64.244H119.591L124.471 71.806C124.471 71.3926 124.38 70.2331 124.38 69.3962V64.244H125.459V73.3789H124.108Z" fill="black"></path><path d="M132.799 73.51C131.941 73.5453 131.085 73.3975 130.288 73.0764L130.651 72.1286C131.354 72.3915 132.099 72.5214 132.849 72.5118C134.2 72.5118 134.866 71.9471 134.866 71.0397C134.866 70.1323 134.372 69.7592 132.718 69.1543C131.065 68.5493 130.359 67.8637 130.359 66.442C130.359 65.0204 131.559 64.1129 133.283 64.1129C134.15 64.1016 135.01 64.277 135.804 64.6272L135.43 65.6354C134.745 65.3253 134.005 65.1572 133.253 65.1414C132.113 65.1414 131.528 65.6858 131.528 66.4723C131.528 67.2587 132.043 67.7729 133.545 68.3174C135.047 68.8619 136.116 69.4971 136.116 70.9389C136.116 72.5924 134.795 73.51 132.799 73.51Z" fill="black"></path><path d="M144.727 70.1524C144.727 72.048 143.587 73.51 141.167 73.51C140.707 73.5623 140.24 73.5117 139.801 73.362C139.362 73.2122 138.962 72.967 138.629 72.6439C138.297 72.3209 138.04 71.928 137.877 71.4937C137.714 71.0594 137.65 70.5944 137.689 70.1323V64.244H138.838V70.1625C138.878 70.7655 139.145 71.331 139.586 71.7441C140.027 72.1573 140.609 72.3872 141.213 72.3872C141.817 72.3872 142.399 72.1573 142.84 71.7441C143.281 71.331 143.548 70.7655 143.587 70.1625V64.244H144.727V70.1524Z" fill="black"></path><path d="M149.415 73.3789H146.874V64.244H149.687C152.44 64.244 154.194 65.7867 154.194 68.7207C154.194 71.806 152.43 73.3789 149.415 73.3789ZM149.516 65.222H148.024V72.3908H149.224C151.694 72.3908 152.934 71.1607 152.934 68.761C152.934 66.3614 151.724 65.222 149.516 65.222Z" fill="black"></path><path d="M160.314 70.5759H156.695L155.606 73.399H154.436L158.005 64.2238H159.014L162.573 73.399H161.383L160.314 70.5759ZM158.943 66.7848C158.862 66.5731 158.6 65.7765 158.51 65.4136C158.379 65.9379 158.217 66.4924 158.106 66.7848L157.098 69.5475H159.992L158.943 66.7848Z" fill="black"></path><path d="M164.64 65.3632C164.64 65.8875 164.731 66.8655 164.731 67.8334V73.3789H163.672V64.244H165.356L168.169 71.7253H168.219L171.083 64.244H172.777V73.3789H171.607V67.7629C171.607 66.8756 171.657 65.9278 171.698 65.3834L168.673 73.3789H167.725L164.64 65.3632Z" fill="black"></path><path d="M174.964 73.3789V64.244H180.076V65.2523H176.124V68.1057H179.552V69.1139H176.124V72.3807H180.359L179.976 73.389L174.964 73.3789Z" fill="black"></path><path d="M187.679 66.8353C187.696 67.3913 187.524 67.9369 187.191 68.3821C186.857 68.8274 186.382 69.146 185.844 69.2853L188.354 73.3789H187.013L184.795 69.5676H182.98V73.3386H181.831V64.244H184.351C186.61 64.244 187.679 65.101 187.679 66.8353ZM182.98 65.2422V68.63H184.351C185.834 68.63 186.489 68.0452 186.489 66.8857C186.489 65.7262 185.783 65.2422 184.281 65.2422H182.98Z" fill="black"></path><path d="M188.798 73.3789L189.181 72.3706H189.877V65.3128H188.798V64.3045H192.105L191.722 65.3128H191.026V72.3706H192.105V73.3789H188.798Z" fill="black"></path><path d="M194.364 68.8114C194.364 71.08 195.372 72.5017 197.509 72.5017C198.319 72.5049 199.121 72.3472 199.869 72.0379L200.201 72.9151C199.315 73.3494 198.334 73.5539 197.348 73.5099C194.545 73.5099 193.154 71.6749 193.154 68.8013C193.154 65.9278 194.706 64.1129 197.54 64.1129C198.38 64.0855 199.216 64.2547 199.98 64.607L199.596 65.6152C198.954 65.2947 198.248 65.1224 197.529 65.1111C195.604 65.1212 194.364 66.5428 194.364 68.8114Z" fill="black"></path><path d="M206.069 70.5759H202.45L201.361 73.399H200.201L203.771 64.2238H204.779L208.338 73.399H207.148L206.069 70.5759ZM204.678 66.7646C204.597 66.5529 204.325 65.7564 204.234 65.3934C204.113 65.9177 203.942 66.4722 203.841 66.7646L202.833 69.5273H205.686L204.678 66.7646Z" fill="black"></path><path d="M215.265 73.3789L210.375 65.7867H210.324C210.324 66.3916 210.425 67.3394 210.425 68.2771V73.3789H209.356V64.244H210.728L215.608 71.806C215.608 71.3926 215.517 70.2331 215.517 69.3962V64.244H216.596V73.3789H215.265Z" fill="black"></path><path d="M223.462 70.5759H219.802L218.794 73.3789H217.584L221.153 64.2037H222.161L225.72 73.3789H224.531L223.462 70.5759ZM222.091 66.7848C222.02 66.5731 221.748 65.7766 221.657 65.4136C221.526 65.9379 221.365 66.4924 221.264 66.7848L220.256 69.5475H223.149L222.091 66.7848Z" fill="black"></path></g></g><defs><clipPath id="clip0_1_3"><rect width="358" height="74" fill="white"></rect></clipPath></defs></svg>